<svg width="427" height="71" viewBox="0 0 427 71" fill="none" xmlns="http://www.w3.org/2000/svg">
<rect width="427" height="71" rx="33.0233" fill="white"/>
<path d="M379 20L392.5 33.5L379 47" stroke="#78C93C" stroke-width="5"/>
<path d="M46.2811 46.0337C45.675 46.3031 45.0688 46.3143 44.4627 46.0674C43.8565 45.8204 43.43 45.4051 43.183 44.8214C42.3075 42.7784 41.5217 40.8028 40.8258 38.8946L38.1991 31.6544C37.0317 28.4441 36.2123 26.2103 35.7409 24.9531C35.5388 24.347 35.5725 23.752 35.8419 23.1683C36.1113 22.5622 36.5491 22.1581 37.1552 21.956C37.7614 21.7315 38.3563 21.754 38.94 22.0234C39.5461 22.2928 39.9615 22.7306 40.186 23.3367L42.7789 30.4421C43.8341 33.4729 44.676 35.8077 45.3046 37.4465C47.4598 31.385 49.2894 26.6256 50.7936 23.1683C51.0405 22.5846 51.4671 22.1693 52.0732 21.9223C52.6794 21.6754 53.2743 21.6866 53.858 21.956C54.4642 22.203 54.8907 22.6295 55.1377 23.2357C55.3846 23.8418 55.3734 24.448 55.104 25.0541C54.0713 27.344 53.1733 29.5217 52.41 31.5871L49.8507 38.6588C48.9078 41.3304 48.1894 43.306 47.6955 44.5856C47.4934 45.1469 47.1342 45.5622 46.6179 45.8316C46.5056 45.9214 46.3934 45.9888 46.2811 46.0337ZM59.557 46.101C58.9059 46.101 58.3447 45.8877 57.8732 45.4612C57.4018 45.0122 57.1548 44.4622 57.1324 43.8111C57.1324 43.2274 57.312 42.7111 57.6712 42.2621C58.0528 41.7906 58.5243 41.51 59.0855 41.4202C59.108 37.5139 59.0968 32.5637 59.0519 26.5695C58.5131 26.4573 58.0641 26.1879 57.7049 25.7613C57.3457 25.3348 57.1661 24.8296 57.1661 24.2459C57.1661 23.5949 57.4018 23.0449 57.8732 22.5958C58.3447 22.1468 58.9059 21.9223 59.557 21.9223L63.3623 21.956C64.0133 21.956 64.5633 22.1918 65.0123 22.6632C65.4613 23.1347 65.6858 23.6959 65.6858 24.347C65.6858 24.9082 65.495 25.4021 65.1134 25.8287C64.7542 26.2552 64.2939 26.5246 63.7327 26.6369C63.8 32.5412 63.8225 37.4353 63.8 41.3192C64.3613 41.409 64.8215 41.6671 65.1807 42.0937C65.5624 42.5202 65.7644 43.0141 65.7869 43.5754C65.7869 44.2264 65.5624 44.7877 65.1134 45.2591C64.6868 45.7306 64.148 45.9775 63.497 46L59.557 46.101ZM77.6008 46.3031C75.8721 46.348 74.3118 46.0786 72.9199 45.4949C71.528 44.9112 70.428 44.0581 69.6198 42.9356C68.8116 41.8131 68.4075 40.511 68.4075 39.0293C68.4075 38.1313 68.6657 37.4353 69.182 36.9414C69.6984 36.4251 70.2821 36.1669 70.9331 36.1669C71.5842 36.1669 72.1117 36.4026 72.5158 36.8741C72.9199 37.3231 73.122 37.8282 73.122 38.3894C73.122 38.9507 73.1557 39.4221 73.223 39.8038C73.2904 40.163 73.4587 40.4997 73.7281 40.814C74.2445 41.4426 75.5578 41.7569 77.6681 41.7569C78.8131 41.7569 79.7896 41.5212 80.5978 41.0498C81.406 40.5783 81.8101 39.9048 81.8101 39.0293C81.8101 38.4456 81.3387 37.8843 80.3958 37.3455C79.7447 36.9863 78.2967 36.4251 76.0517 35.6618C73.6047 34.8536 71.7638 33.9219 70.529 32.8667C69.2943 31.7891 68.6769 30.3299 68.6769 28.489C68.6769 27.0746 69.081 25.8399 69.8892 24.7847C70.6974 23.7296 71.7525 22.9214 73.0546 22.3601C74.3792 21.7989 75.7823 21.5182 77.264 21.5182C78.7906 21.4733 80.2611 21.7203 81.6754 22.2591C83.0898 22.7979 84.2235 23.5724 85.0766 24.5827C85.9522 25.5705 86.3899 26.693 86.3899 27.9502C86.3899 28.6237 86.143 29.2074 85.6491 29.7013C85.1552 30.1727 84.5827 30.4085 83.9317 30.4085C83.4827 30.4085 83.0449 30.2738 82.6183 30.0044C82.1918 29.735 81.9224 29.3982 81.8101 28.9941C81.6754 28.4553 81.4734 28.04 81.204 27.7481C80.957 27.4563 80.6203 27.1869 80.1937 26.9399C79.6325 26.6256 79.1274 26.4011 78.6784 26.2664C78.2294 26.1317 77.5895 26.0644 76.7589 26.0644C75.7711 26.0644 74.9517 26.2552 74.3006 26.6369C73.672 26.9961 73.3577 27.4675 73.3577 28.0512C73.3577 28.7921 73.7169 29.3982 74.4353 29.8697C75.1762 30.3411 76.2089 30.7901 77.5334 31.2167C80.0927 32.0698 81.7989 32.732 82.652 33.2035C84.0664 33.9892 85.0654 34.8199 85.6491 35.6954C86.2328 36.571 86.5246 37.671 86.5246 38.9956C86.5246 40.4099 86.0981 41.6784 85.245 42.8009C84.3919 43.9009 83.2694 44.7652 81.8775 45.3938C80.508 46 79.0825 46.3031 77.6008 46.3031ZM91.4891 46.101C90.838 46.101 90.2768 45.8877 89.8053 45.4612C89.3339 45.0122 89.0869 44.4622 89.0645 43.8111C89.0645 43.2274 89.2441 42.7111 89.6033 42.2621C89.9849 41.7906 90.4564 41.51 91.0176 41.4202C91.0401 37.5139 91.0289 32.5637 90.984 26.5695C90.4452 26.4573 89.9962 26.1879 89.637 25.7613C89.2778 25.3348 89.0982 24.8296 89.0982 24.2459C89.0982 23.5949 89.3339 23.0449 89.8053 22.5958C90.2768 22.1468 90.838 21.9223 91.4891 21.9223L95.2944 21.956C95.9454 21.956 96.4954 22.1918 96.9444 22.6632C97.3934 23.1347 97.6179 23.6959 97.6179 24.347C97.6179 24.9082 97.4271 25.4021 97.0455 25.8287C96.6863 26.2552 96.226 26.5246 95.6648 26.6369C95.7321 32.5412 95.7546 37.4353 95.7321 41.3192C96.2934 41.409 96.7536 41.6671 97.1128 42.0937C97.4945 42.5202 97.6965 43.0141 97.719 43.5754C97.719 44.2264 97.4945 44.7877 97.0455 45.2591C96.6189 45.7306 96.0801 45.9775 95.4291 46L91.4891 46.101ZM110.914 43.6764C110.891 44.3275 110.644 44.8775 110.173 45.3265C109.724 45.7755 109.174 46 108.523 46C107.872 45.9775 107.322 45.7418 106.873 45.2928C106.424 44.8214 106.199 44.2601 106.199 43.6091C106.221 42.9131 106.21 39.7364 106.165 34.079C106.143 31.0483 106.188 28.5114 106.3 26.4685C104.504 26.4685 102.989 26.4797 101.754 26.5022C101.103 26.5022 100.542 26.2777 100.07 25.8287C99.6212 25.3797 99.3854 24.8296 99.363 24.1786C99.363 23.5275 99.5875 22.9775 100.036 22.5285C100.485 22.057 101.036 21.8101 101.687 21.7876C103.101 21.7652 105.424 21.754 108.657 21.754C111.89 21.7315 114.214 21.7203 115.628 21.7203C116.279 21.7203 116.84 21.9448 117.312 22.3938C117.783 22.8428 118.019 23.3928 118.019 24.0439C118.041 24.6725 117.828 25.2337 117.379 25.7276C116.93 26.1991 116.391 26.4348 115.763 26.4348C114.348 26.4348 112.766 26.446 111.015 26.4685C110.902 28.4216 110.857 30.9473 110.88 34.0454C110.925 39.7701 110.936 42.9805 110.914 43.6764ZM135.121 43.7774C135.121 43.2162 135.11 42.4529 135.088 41.4875C135.088 40.4997 135.088 39.7252 135.088 39.164V37.2445L131.72 31.6544C130.059 28.938 128.824 26.8165 128.016 25.2899C127.702 24.7286 127.634 24.1449 127.814 23.5388C127.994 22.9102 128.364 22.4387 128.925 22.1244C129.509 21.8101 130.104 21.7427 130.71 21.9223C131.339 22.102 131.81 22.4836 132.124 23.0673C132.865 24.3919 134.549 27.2318 137.176 31.5871L138.994 28.7584L142.833 22.9663C143.17 22.4275 143.652 22.0795 144.281 21.9223C144.91 21.7652 145.493 21.8662 146.032 22.2254C146.593 22.5622 146.953 23.0449 147.11 23.6735C147.267 24.3021 147.166 24.897 146.807 25.4582C146.672 25.6827 145.37 27.6583 142.9 31.385C141.576 33.3831 140.532 35.0556 139.769 36.4026C139.791 36.919 139.802 38.0527 139.802 39.8038C139.802 41.5549 139.813 42.8345 139.836 43.6427C139.858 44.2938 139.645 44.855 139.196 45.3265C138.747 45.7979 138.197 46.0449 137.546 46.0674C136.895 46.0898 136.334 45.8765 135.862 45.4275C135.391 44.9785 135.144 44.4285 135.121 43.7774ZM157.235 46.3031C155.574 46.2357 154.092 45.8653 152.79 45.1918C151.488 44.5183 150.433 43.6427 149.625 42.5651C148.839 41.4875 148.233 40.3201 147.806 39.0629C147.38 37.7833 147.155 36.4587 147.133 35.0893C147.088 33.5627 147.234 32.1371 147.571 30.8126C147.907 29.488 148.401 28.2308 149.052 27.041C149.726 25.8287 150.624 24.7623 151.746 23.8418C152.869 22.8989 154.137 22.2254 155.552 21.8213C156.113 21.6866 156.753 21.6193 157.471 21.6193H158.178C158.537 21.6193 158.796 21.6305 158.953 21.6529C159.11 21.6754 159.278 21.6866 159.458 21.6866C160.176 21.7091 160.749 21.7427 161.175 21.7876C161.624 21.8326 162.208 21.9785 162.926 22.2254C163.645 22.4724 164.352 22.8316 165.048 23.303C166.619 24.3806 167.776 25.7389 168.517 27.3777C169.28 29.0166 169.65 30.7228 169.628 32.4963C169.605 34.2474 169.302 35.9312 168.719 37.5476C168.292 38.715 167.72 39.8262 167.001 40.8814C166.305 41.9141 165.475 42.857 164.509 43.7101C163.544 44.5407 162.433 45.1918 161.175 45.6632C159.918 46.1347 158.605 46.348 157.235 46.3031ZM157.437 41.6896C158.852 41.7345 160.176 41.2069 161.411 40.1069C162.668 39.0068 163.611 37.6149 164.24 35.9312C164.936 34.0454 165.093 32.3392 164.711 30.8126C164.352 29.286 163.589 28.1186 162.421 27.3104C162.129 27.1083 161.883 26.9624 161.68 26.8726C161.501 26.7603 161.276 26.6593 161.007 26.5695C160.76 26.4797 160.502 26.4236 160.232 26.4011C159.963 26.3787 159.75 26.3675 159.593 26.3675C159.435 26.3675 159.233 26.3562 158.986 26.3338C158.74 26.3113 158.56 26.2889 158.448 26.2664C158.335 26.2215 158.122 26.1991 157.808 26.1991C157.516 26.1542 157.213 26.1879 156.899 26.3001C155.305 26.8838 154.047 27.939 153.127 29.4656C152.229 30.9697 151.802 32.7882 151.847 34.9209C151.892 36.8292 152.409 38.4231 153.396 39.7028C154.384 40.9824 155.731 41.6447 157.437 41.6896ZM174.121 42.06C173.402 41.0498 172.942 39.5905 172.74 37.6823C172.583 36.3353 172.538 34.674 172.605 32.6984C172.65 31.6208 172.751 29.9819 172.908 27.7818C173.043 25.9409 173.111 24.7398 173.111 24.1786C173.133 23.5275 173.369 22.9775 173.818 22.5285C174.289 22.0795 174.85 21.8662 175.501 21.8887C176.152 21.8887 176.703 22.1244 177.152 22.5958C177.601 23.0449 177.814 23.5949 177.791 24.2459C177.791 24.897 177.724 26.1879 177.589 28.1186C177.432 30.4534 177.342 32.0249 177.32 32.8331C177.253 34.6066 177.275 36.0546 177.387 37.1771C177.522 38.2772 177.713 39.0068 177.96 39.366C178.588 40.264 179.464 40.8589 180.586 41.1508C181.709 41.4426 182.82 41.409 183.92 41.0498C185.043 40.6681 185.918 40.0171 186.547 39.0966C187.602 37.57 188.163 35.3587 188.231 32.4626C188.253 31.4299 188.219 30.0717 188.13 28.388C187.995 26.143 187.916 24.7735 187.894 24.2796C187.894 23.6286 188.107 23.0673 188.534 22.5958C188.983 22.1244 189.533 21.8887 190.184 21.8887C190.835 21.8662 191.396 22.0795 191.868 22.5285C192.339 22.9551 192.586 23.4939 192.608 24.1449C192.608 24.5939 192.676 25.9185 192.81 28.1186C192.923 29.937 192.956 31.4299 192.911 32.5973C192.822 36.4138 192.002 39.4558 190.453 41.7233C189.578 43.0029 188.41 44.0244 186.951 44.7877C185.492 45.5285 183.988 45.9439 182.439 46.0337C180.912 46.1235 179.385 45.8316 177.859 45.1581C176.332 44.4846 175.086 43.4519 174.121 42.06ZM211.901 44.2152C211.385 41.9029 210.936 40.163 210.554 38.9956C210.15 37.9853 209.69 37.2445 209.174 36.773C208.612 36.2567 207.804 35.9312 206.749 35.7965C206.502 35.8189 206.165 35.8414 205.739 35.8638C205.312 35.8638 205.088 35.8638 205.065 35.8638C204.19 35.8863 203.516 35.9087 203.045 35.9312H202.034C202.057 38.9844 202.068 41.5661 202.068 43.6764C202.068 44.3275 201.832 44.8887 201.361 45.3602C200.912 45.8092 200.362 46.0337 199.711 46.0337C199.06 46.0337 198.499 45.8092 198.027 45.3602C197.578 44.8887 197.354 44.3275 197.354 43.6764C197.354 41.1396 197.331 37.7721 197.286 33.5739C197.241 29.3758 197.219 26.2328 197.219 24.1449C197.219 23.4939 197.443 22.9438 197.892 22.4948C198.364 22.0234 198.925 21.7876 199.576 21.7876H199.745C202.955 21.3835 205.941 21.3948 208.702 21.8213C210.835 22.1356 212.519 22.7306 213.753 23.6061C215.617 24.9082 216.492 26.6593 216.38 28.8594C216.245 31.0146 215.123 32.7208 213.013 33.978C213.821 34.9209 214.472 36.0546 214.966 37.3792C215.46 38.6813 215.965 40.5783 216.481 43.0703C216.638 43.6989 216.548 44.2938 216.212 44.855C215.875 45.4163 215.392 45.7755 214.764 45.9326C214.135 46.0898 213.54 46 212.979 45.6632C212.418 45.3265 212.058 44.8438 211.901 44.2152ZM202.068 31.2167C203.932 30.9922 205.525 30.9473 206.85 31.082C207.03 31.0595 207.187 31.0371 207.321 31.0146C208.646 30.7901 209.712 30.4534 210.521 30.0044C211.261 29.5778 211.643 29.1064 211.666 28.59C211.71 28.141 211.52 27.7706 211.093 27.4787C210.42 27.0073 209.376 26.6705 207.961 26.4685C206.255 26.1991 204.246 26.143 201.933 26.3001C201.933 27.6696 201.945 29.3084 201.967 31.2167H202.068ZM248.004 42.1274C246.927 43.4295 245.681 44.4173 244.266 45.0908C242.852 45.7418 241.426 46.0561 239.99 46.0337C238.553 46.0337 237.139 45.7867 235.747 45.2928C234.355 44.7989 233.086 44.0468 231.941 43.0366C230.796 42.0263 229.887 40.8589 229.214 39.5344C228.361 37.8955 227.923 36.1893 227.9 34.4158C227.878 32.6198 228.192 30.9809 228.843 29.4992C229.472 27.9951 230.37 26.6593 231.537 25.4919C232.727 24.2796 234.052 23.3592 235.511 22.7306C236.993 22.0795 238.631 21.7877 240.427 21.855C242.223 21.9223 243.952 22.4499 245.613 23.4377C246.062 23.6622 246.455 23.9204 246.792 24.2123C247.151 24.4817 247.488 24.7847 247.802 25.1215C248.117 25.4582 248.352 25.7276 248.509 25.9297C248.667 26.1093 248.902 26.4124 249.217 26.8389C249.531 27.2655 249.733 27.5349 249.823 27.6471C250.204 28.1635 250.35 28.7472 250.261 29.3982C250.171 30.0268 249.868 30.5319 249.351 30.9136C248.835 31.2952 248.262 31.4412 247.634 31.3514C247.005 31.2616 246.489 30.9585 246.085 30.4421L245.411 29.5666L244.873 28.8257C244.783 28.691 244.637 28.5227 244.435 28.3206C244.255 28.1186 244.076 27.9614 243.896 27.8492C243.739 27.7145 243.537 27.5685 243.29 27.4114C241.718 26.6032 240.203 26.3338 238.744 26.6032C237.284 26.8501 235.994 27.5573 234.871 28.7247C233.704 29.8921 232.974 31.2503 232.682 32.7994C232.39 34.326 232.604 35.8526 233.322 37.3792C234.063 38.8384 235.118 39.916 236.487 40.612C237.879 41.3079 239.305 41.5324 240.764 41.2855C242.223 41.0161 243.436 40.2977 244.401 39.1303C244.85 38.6139 245.108 38.1986 245.176 37.8843C245.221 37.7272 245.254 37.5812 245.277 37.4465C244.626 37.4241 243.391 37.4578 241.572 37.5476C240.921 37.57 240.36 37.368 239.889 36.9414C239.417 36.5149 239.17 35.9761 239.148 35.325C239.125 34.674 239.327 34.1127 239.754 33.6413C240.18 33.1698 240.719 32.9229 241.37 32.9004C243.189 32.8331 245.243 32.7994 247.533 32.7994C248.184 32.7994 248.745 33.0351 249.217 33.5066C249.711 33.978 249.946 34.5617 249.924 35.2577V36.0322C249.946 36.571 249.935 37.1098 249.89 37.6486C249.868 38.1649 249.812 38.6252 249.722 39.0293C249.452 40.0395 248.88 41.0722 248.004 42.1274ZM251.922 44.6193C251.653 44.0132 251.642 43.4182 251.889 42.8345L259.432 23.4041C259.612 22.9775 259.892 22.6295 260.274 22.3601C260.656 22.0907 261.082 21.9448 261.554 21.9223C262.047 21.8325 262.53 21.9223 263.002 22.1918C263.495 22.4387 263.866 22.7979 264.113 23.2694L266.605 29.4656L269.535 36.7057L271.858 42.7672C272.105 43.3733 272.094 43.9795 271.824 44.5856C271.577 45.1693 271.14 45.5847 270.511 45.8316C269.905 46.0786 269.299 46.0786 268.693 45.8316C268.086 45.5622 267.66 45.1357 267.413 44.552L265.46 40.1069C262.945 40.0395 260.453 40.062 257.984 40.1742L256.334 44.6193C256.065 45.203 255.627 45.6296 255.021 45.899C254.414 46.1459 253.808 46.1459 253.202 45.899C252.596 45.6296 252.169 45.203 251.922 44.6193ZM259.937 35.3587C260.79 35.3587 262.025 35.3587 263.641 35.3587L261.857 30.5095L259.937 35.3587ZM289.38 44.2152C288.864 41.9029 288.415 40.163 288.033 38.9956C287.629 37.9853 287.169 37.2445 286.652 36.773C286.091 36.2567 285.283 35.9312 284.228 35.7965C283.981 35.8189 283.644 35.8414 283.218 35.8638C282.791 35.8638 282.567 35.8638 282.544 35.8638C281.669 35.8863 280.995 35.9087 280.524 35.9312H279.513C279.536 38.9844 279.547 41.5661 279.547 43.6764C279.547 44.3275 279.311 44.8887 278.84 45.3602C278.391 45.8092 277.841 46.0337 277.19 46.0337C276.539 46.0337 275.977 45.8092 275.506 45.3602C275.057 44.8887 274.833 44.3275 274.833 43.6764C274.833 41.1396 274.81 37.7721 274.765 33.5739C274.72 29.3758 274.698 26.2328 274.698 24.1449C274.698 23.4939 274.922 22.9438 275.371 22.4948C275.843 22.0234 276.404 21.7876 277.055 21.7876H277.223C280.434 21.3835 283.42 21.3948 286.181 21.8213C288.314 22.1356 289.998 22.7306 291.232 23.6061C293.096 24.9082 293.971 26.6593 293.859 28.8594C293.724 31.0146 292.602 32.7208 290.491 33.978C291.3 34.9209 291.951 36.0546 292.445 37.3792C292.938 38.6813 293.444 40.5783 293.96 43.0703C294.117 43.6989 294.027 44.2938 293.691 44.855C293.354 45.4163 292.871 45.7755 292.243 45.9326C291.614 46.0898 291.019 46 290.458 45.6632C289.897 45.3265 289.537 44.8438 289.38 44.2152ZM279.547 31.2167C281.41 30.9922 283.004 30.9473 284.329 31.082C284.508 31.0595 284.666 31.0371 284.8 31.0146C286.125 30.7901 287.191 30.4534 287.999 30.0044C288.74 29.5778 289.122 29.1064 289.144 28.59C289.189 28.141 288.999 27.7706 288.572 27.4787C287.898 27.0073 286.855 26.6705 285.44 26.4685C283.734 26.1991 281.725 26.143 279.412 26.3001C279.412 27.6696 279.424 29.3084 279.446 31.2167H279.547ZM300.546 46C300.389 46 300.243 45.9888 300.108 45.9663C299.479 45.9439 298.941 45.7081 298.492 45.2591C298.043 44.7877 297.818 44.2377 297.818 43.6091C297.841 42.5988 297.829 39.3772 297.784 33.9443C297.74 28.489 297.762 25.245 297.852 24.2123C297.874 23.6061 298.121 23.0785 298.593 22.6295C299.087 22.1805 299.659 21.9672 300.31 21.9897C300.512 21.9223 300.714 21.8887 300.916 21.8887C301.792 21.7989 302.432 21.7427 302.836 21.7203C303.262 21.6978 303.947 21.6754 304.89 21.6529C305.855 21.608 306.663 21.6417 307.314 21.754C307.988 21.8662 308.74 22.0234 309.571 22.2254C310.424 22.405 311.221 22.6969 311.962 23.101C312.702 23.5051 313.376 23.9878 313.982 24.549C315.15 25.6042 316.025 26.8726 316.609 28.3543C317.215 29.836 317.507 31.4524 317.484 33.2035C317.462 34.9321 317.204 36.5373 316.71 38.019C316.238 39.4783 315.497 40.814 314.487 42.0263C313.477 43.2162 312.298 44.1479 310.951 44.8214C309.537 45.4949 307.674 45.8877 305.361 46C304.89 46.0225 304.048 46.0225 302.836 46C301.623 46 300.86 46 300.546 46ZM305.159 41.3865C306.821 41.2743 308.055 41.0273 308.864 40.6457C310.211 39.9946 311.243 38.9058 311.962 37.3792C312.68 35.8526 312.938 34.1576 312.736 32.2943C312.534 30.4085 311.894 28.9717 310.817 27.9839C309.941 27.1981 308.83 26.7042 307.483 26.5022C306.158 26.3001 304.497 26.2777 302.499 26.4348C302.476 28.5676 302.465 30.2064 302.465 31.3514C302.465 32.4963 302.476 34.1913 302.499 36.4363C302.521 38.6813 302.533 40.3201 302.533 41.3528C303.633 41.3977 304.508 41.409 305.159 41.3865ZM337.295 46.0337C333.972 46.0337 329.437 46 323.69 45.9326C323.241 45.9326 322.826 45.8092 322.444 45.5622C322.085 45.2928 321.816 44.9673 321.636 44.5856C321.367 44.1815 321.232 43.7438 321.232 43.2723C321.254 42.4866 321.243 39.3211 321.198 33.776C321.176 29.735 321.277 26.5583 321.501 24.2459C321.524 23.9541 321.591 23.6847 321.703 23.4377C321.883 22.9887 322.164 22.6295 322.545 22.3601C322.927 22.0683 323.365 21.9111 323.859 21.8887C325.498 21.8662 327.709 21.8662 330.493 21.8887C333.276 21.8887 335.488 21.8775 337.127 21.855C337.778 21.855 338.328 22.0795 338.777 22.5285C339.248 22.9775 339.484 23.5275 339.484 24.1786C339.484 24.8072 339.259 25.3572 338.81 25.8287C338.384 26.2777 337.845 26.5022 337.194 26.5022C335.937 26.5022 334.062 26.5022 331.57 26.5022C329.078 26.4797 327.204 26.4797 325.947 26.5022C325.879 27.8716 325.834 29.488 325.812 31.3514C326.889 31.3289 330.212 31.3177 335.78 31.3177C336.431 31.3177 336.981 31.5422 337.43 31.9912C337.901 32.4402 338.137 32.9902 338.137 33.6413C338.137 34.2699 337.901 34.8199 337.43 35.2913C336.981 35.7403 336.431 35.9648 335.78 35.9648C330.19 35.9648 326.878 35.9761 325.845 35.9985C325.89 38.5129 325.902 40.2865 325.879 41.3192C330.437 41.3641 334.242 41.3865 337.295 41.3865C337.946 41.3865 338.496 41.611 338.945 42.06C339.394 42.509 339.619 43.059 339.619 43.7101C339.619 44.3611 339.394 44.9112 338.945 45.3602C338.496 45.8092 337.946 46.0337 337.295 46.0337ZM360.982 45.8653C360.106 46.0225 359.377 45.753 358.793 45.0571C357.289 43.2835 355.392 40.6569 353.102 37.1771C350.61 33.6525 348.847 31.2616 347.815 30.0044C347.837 30.9024 347.893 32.9004 347.983 35.9985C348.073 39.0742 348.118 41.6335 348.118 43.6764C348.118 44.3275 347.882 44.8887 347.411 45.3602C346.962 45.8092 346.412 46.0337 345.761 46.0337C345.11 46.0337 344.548 45.8092 344.077 45.3602C343.628 44.8887 343.403 44.3275 343.403 43.6764C343.403 41.7008 343.336 38.5129 343.201 34.1127C343.089 29.6901 343.078 26.345 343.168 24.0776C343.19 23.4265 343.437 22.8765 343.908 22.4275C344.38 21.9785 344.941 21.7652 345.592 21.7876C345.906 21.8101 346.21 21.8774 346.501 21.9897C346.928 22.1244 347.298 22.3714 347.613 22.7306C347.994 23.202 348.612 23.9541 349.465 24.9868C350.318 25.997 350.958 26.7603 351.384 27.2767C352.642 28.5788 354.505 30.9809 356.974 34.4831L358.591 36.8067C358.658 31.5983 358.669 27.3665 358.624 24.1112C358.624 23.4602 358.849 22.9102 359.298 22.4611C359.747 21.9897 360.297 21.754 360.948 21.754C361.599 21.7315 362.149 21.9448 362.598 22.3938C363.07 22.8428 363.316 23.3928 363.339 24.0439C363.361 27.0971 363.328 33.5964 363.238 43.5417C363.215 44.1703 362.991 44.7091 362.564 45.1581C362.138 45.5847 361.61 45.8204 360.982 45.8653Z" fill="#78C93C"/>
</svg>
