<svg width="287" height="50" viewBox="0 0 287 50" fill="none" xmlns="http://www.w3.org/2000/svg">
<rect x="0.707275" y="0.951233" width="286.098" height="48.2439" rx="22.439" fill="white"/>
<path d="M91.3965 32.4454C90.2067 32.4454 89.0931 32.2394 88.0558 31.8275C87.0337 31.4157 86.2176 30.8589 85.6074 30.1572C85.0125 29.5012 84.4862 28.5554 84.0285 27.3198C83.5709 26.0689 83.3421 24.9706 83.3421 24.0248C83.3421 22.5756 83.7158 21.2027 84.4633 19.9061C85.226 18.6094 86.2405 17.5645 87.5066 16.7713C88.7727 15.978 90.1228 15.5814 91.5567 15.5814C92.4567 15.5814 93.3415 15.7492 94.211 16.0848C94.8822 16.3594 95.4314 16.6797 95.8585 17.0458C96.3009 17.4119 96.8577 18.0069 97.5289 18.8306C97.8797 19.2425 98.0551 19.6239 98.0551 19.9747C98.0551 20.3866 97.8873 20.7527 97.5517 21.0731C97.2314 21.3781 96.8653 21.5307 96.4534 21.5307C96.011 21.5307 95.6373 21.3476 95.3322 20.9815L94.3254 19.7917C94.0203 19.4103 93.6161 19.1281 93.1127 18.945C92.6093 18.762 92.0982 18.6705 91.5796 18.6705C90.7101 18.6705 89.8787 18.9222 89.0854 19.4256C88.3075 19.9137 87.6744 20.5697 87.1862 21.3934C86.7134 22.2019 86.4769 23.0638 86.4769 23.9791C86.4769 24.7265 86.6295 25.4816 86.9345 26.2444C87.2396 26.9918 87.5905 27.6097 87.9871 28.0978C88.2922 28.4639 88.8109 28.769 89.5431 29.0131C90.2753 29.2571 91.0457 29.3792 91.8542 29.3792C92.4643 29.3792 92.983 29.2953 93.4101 29.1275C93.8372 28.9597 94.1576 28.7309 94.3712 28.441C94.5237 28.2275 94.6915 27.8537 94.8746 27.3198L95.2407 26.4045C95.5458 25.7944 95.9958 25.4893 96.5907 25.4893C97.0026 25.4893 97.3687 25.6418 97.689 25.9469C98.0246 26.2367 98.1924 26.5952 98.1924 27.0223C98.1924 27.2054 98.1467 27.4113 98.0551 27.6402L97.8492 28.2122C97.6967 28.6241 97.5441 28.9902 97.3916 29.3105C97.2543 29.6156 97.0712 29.936 96.8424 30.2716C96.278 31.0496 95.5076 31.6064 94.5313 31.942C93.555 32.2776 92.5101 32.4454 91.3965 32.4454ZM106.43 32.3767C105.301 32.3309 104.294 32.0792 103.409 31.6216C102.524 31.164 101.807 30.569 101.258 29.8368C100.724 29.1046 100.312 28.3114 100.023 27.4571C99.7328 26.5876 99.5802 25.6876 99.565 24.757C99.5345 23.7197 99.6336 22.7511 99.8625 21.851C100.091 20.951 100.427 20.0968 100.869 19.2883C101.327 18.4645 101.937 17.7399 102.7 17.1145C103.463 16.4738 104.324 16.0162 105.285 15.7416C105.667 15.65 106.102 15.6043 106.59 15.6043H107.07C107.314 15.6043 107.49 15.6119 107.597 15.6272C107.703 15.6424 107.818 15.65 107.94 15.65C108.428 15.6653 108.817 15.6882 109.107 15.7187C109.412 15.7492 109.808 15.8484 110.297 16.0162C110.785 16.184 111.265 16.428 111.738 16.7484C112.806 17.4806 113.592 18.4035 114.095 19.5171C114.614 20.6307 114.865 21.79 114.85 22.9951C114.835 24.185 114.629 25.3291 114.232 26.4274C113.942 27.2207 113.553 27.9758 113.065 28.6927C112.592 29.3944 112.028 30.0351 111.372 30.6148C110.716 31.1792 109.961 31.6216 109.107 31.942C108.252 32.2623 107.36 32.4072 106.43 32.3767ZM106.567 29.2419C107.528 29.2724 108.428 28.9139 109.267 28.1664C110.121 27.419 110.762 26.4732 111.189 25.3291C111.662 24.0477 111.769 22.8884 111.509 21.851C111.265 20.8137 110.747 20.0205 109.953 19.4713C109.755 19.334 109.587 19.2349 109.45 19.1739C109.328 19.0976 109.175 19.0289 108.992 18.9679C108.825 18.9069 108.649 18.8688 108.466 18.8535C108.283 18.8383 108.138 18.8306 108.031 18.8306C107.925 18.8306 107.787 18.823 107.619 18.8077C107.452 18.7925 107.33 18.7772 107.253 18.762C107.177 18.7315 107.032 18.7162 106.819 18.7162C106.62 18.6857 106.414 18.7086 106.201 18.7849C105.118 19.1815 104.263 19.8984 103.638 20.9358C103.028 21.9578 102.738 23.1934 102.768 24.6426C102.799 25.9393 103.15 27.0223 103.821 27.8919C104.492 28.7614 105.408 29.2114 106.567 29.2419ZM133.577 30.6377C133.562 31.0801 133.394 31.4538 133.074 31.7589C132.753 32.064 132.372 32.2089 131.93 32.1937C131.487 32.1784 131.114 32.0106 130.808 31.6903C130.503 31.3699 130.358 30.9885 130.374 30.5462C130.404 29.5546 130.389 26.6257 130.328 21.7595C129.199 23.1782 128.085 24.696 126.987 26.313C126.728 26.6791 126.385 26.9079 125.957 26.9995C125.53 27.0757 125.134 26.9918 124.768 26.7478C124.722 26.7173 124.684 26.6867 124.653 26.6562C124.485 26.5495 124.34 26.4198 124.218 26.2672L120.695 21.8282C120.71 21.8587 120.71 23.3231 120.695 26.2215C120.695 29.1046 120.695 30.5538 120.695 30.569C120.695 31.0114 120.534 31.3928 120.214 31.7131C119.909 32.0182 119.535 32.1708 119.093 32.1708C118.651 32.1708 118.269 32.0182 117.949 31.7131C117.644 31.3928 117.491 31.0114 117.491 30.569C117.491 29.9284 117.491 28.8529 117.491 27.3427C117.506 25.8325 117.514 24.6655 117.514 23.8418C117.514 23.018 117.499 21.996 117.468 20.7756C117.438 19.6925 117.384 18.5713 117.308 17.4119C117.278 16.9696 117.407 16.5806 117.697 16.245C117.987 15.9094 118.353 15.7263 118.795 15.6958C119.024 15.6806 119.238 15.7111 119.436 15.7873C119.863 15.8484 120.206 16.0543 120.466 16.4051L125.546 22.7892C127.193 20.501 128.871 18.4416 130.58 16.6111C130.9 16.0619 131.373 15.795 131.998 15.8102C132.441 15.8255 132.814 15.9933 133.12 16.3136C133.425 16.634 133.57 17.0153 133.554 17.4577C133.509 18.9069 133.509 21.1264 133.554 24.1163C133.6 27.091 133.608 29.2648 133.577 30.6377ZM140.311 30.7292C140.311 31.1716 140.151 31.553 139.831 31.8733C139.526 32.1784 139.152 32.3309 138.71 32.3309C138.267 32.3309 137.886 32.1784 137.566 31.8733C137.26 31.553 137.108 31.1716 137.108 30.7292C137.108 30.2868 137.093 28.0673 137.062 24.0706C137.032 20.0739 137.039 17.8543 137.085 17.4119C137.1 16.9696 137.268 16.6035 137.588 16.3136C137.909 16.0085 138.29 15.856 138.733 15.856C138.809 15.856 138.885 15.8636 138.961 15.8789C138.992 15.8789 139.03 15.8712 139.076 15.856C140.937 15.5509 142.394 15.4289 143.446 15.4899C145.521 15.6272 147.092 16.3518 148.16 17.6637C148.984 18.6705 149.403 19.7459 149.418 20.89C149.434 22.0341 149.075 22.9951 148.343 23.7731C147.748 24.4291 147.001 24.9401 146.101 25.3062C145.201 25.6723 144.285 25.8783 143.355 25.924C143.05 25.9393 142.722 25.9393 142.371 25.924C142.02 25.9088 141.593 25.8783 141.089 25.8325C140.601 25.7867 140.327 25.7562 140.266 25.741C140.296 28.0444 140.311 29.7072 140.311 30.7292ZM143.217 22.7206C143.782 22.7053 144.316 22.5985 144.819 22.4002C145.323 22.1866 145.696 21.9349 145.94 21.6451C146.062 21.5078 146.146 21.3858 146.192 21.279C146.238 21.157 146.223 20.9358 146.146 20.6154C146.085 20.2951 145.933 19.9824 145.689 19.6773C145.201 19.0823 144.384 18.7544 143.24 18.6933C142.478 18.6476 141.486 18.7162 140.266 18.8993C140.25 19.9213 140.243 21.1341 140.243 22.5375H140.266L141.341 22.6519C141.738 22.6824 142.081 22.7053 142.371 22.7206C142.661 22.7358 142.943 22.7358 143.217 22.7206ZM153.262 32.2165C152.743 32.2013 152.324 31.9877 152.004 31.5758C151.698 31.2708 151.538 30.897 151.523 30.4546C151.508 28.8987 151.477 26.6944 151.431 23.8418L151.363 17.4119C151.363 16.9696 151.515 16.5958 151.82 16.2907C152.126 15.9704 152.499 15.8102 152.942 15.8102C153.384 15.795 153.758 15.9399 154.063 16.245C154.383 16.5501 154.551 16.9238 154.566 17.3662L154.635 23.3612L154.704 29.1275C155.451 29.1275 156.534 29.1199 157.953 29.1046C159.387 29.0893 160.439 29.0817 161.111 29.0817C161.553 29.0817 161.927 29.2343 162.232 29.5394C162.552 29.8292 162.712 30.1877 162.712 30.6148C162.712 31.0419 162.552 31.4157 162.232 31.736C161.927 32.0411 161.553 32.1937 161.111 32.1937C160.607 32.1937 159.303 32.2013 157.198 32.2165C155.077 32.2318 153.765 32.2318 153.262 32.2165ZM175.484 32.1937C173.227 32.1937 170.145 32.1708 166.24 32.125C165.935 32.125 165.653 32.0411 165.393 31.8733C165.149 31.6903 164.966 31.4691 164.844 31.2097C164.661 30.9352 164.57 30.6377 164.57 30.3173C164.585 29.7834 164.577 27.6325 164.547 23.8646C164.531 21.1188 164.6 18.9603 164.753 17.3891C164.768 17.1908 164.814 17.0077 164.89 16.8399C165.012 16.5348 165.203 16.2907 165.462 16.1077C165.721 15.9094 166.019 15.8026 166.354 15.7873C167.468 15.7721 168.971 15.7721 170.862 15.7873C172.754 15.7873 174.256 15.7797 175.37 15.7645C175.812 15.7645 176.186 15.917 176.491 16.2221C176.811 16.5272 176.972 16.9009 176.972 17.3433C176.972 17.7704 176.819 18.1442 176.514 18.4645C176.224 18.7696 175.858 18.9222 175.416 18.9222C174.561 18.9222 173.288 18.9222 171.594 18.9222C169.901 18.9069 168.627 18.9069 167.773 18.9222C167.727 19.8527 167.697 20.951 167.682 22.2171C168.414 22.2019 170.671 22.1943 174.455 22.1943C174.897 22.1943 175.271 22.3468 175.576 22.6519C175.896 22.957 176.056 23.3307 176.056 23.7731C176.056 24.2002 175.896 24.574 175.576 24.8943C175.271 25.1994 174.897 25.352 174.455 25.352C170.656 25.352 168.406 25.3596 167.704 25.3749C167.735 27.0834 167.743 28.2885 167.727 28.9902C170.824 29.0207 173.41 29.036 175.484 29.036C175.927 29.036 176.3 29.1885 176.605 29.4936C176.911 29.7987 177.063 30.1724 177.063 30.6148C177.063 31.0572 176.911 31.4309 176.605 31.736C176.3 32.0411 175.927 32.1937 175.484 32.1937ZM185.721 30.5919C185.706 31.0343 185.538 31.408 185.218 31.7131C184.913 32.0182 184.539 32.1708 184.097 32.1708C183.654 32.1555 183.281 31.9953 182.976 31.6903C182.671 31.3699 182.518 30.9885 182.518 30.5462C182.533 30.0733 182.526 27.9147 182.495 24.0706C182.48 22.0112 182.51 20.2874 182.587 18.8993C181.366 18.8993 180.337 18.9069 179.498 18.9222C179.055 18.9222 178.674 18.7696 178.353 18.4645C178.048 18.1594 177.888 17.7857 177.873 17.3433C177.873 16.9009 178.025 16.5272 178.331 16.2221C178.636 15.9017 179.009 15.7339 179.452 15.7187C180.413 15.7034 181.992 15.6958 184.188 15.6958C186.385 15.6806 187.964 15.6729 188.925 15.6729C189.367 15.6729 189.749 15.8255 190.069 16.1306C190.389 16.4357 190.55 16.8094 190.55 17.2518C190.565 17.6789 190.42 18.0603 190.115 18.3959C189.81 18.7162 189.444 18.8764 189.016 18.8764C188.055 18.8764 186.98 18.884 185.79 18.8993C185.714 20.2264 185.683 21.9426 185.699 24.0477C185.729 27.9376 185.737 30.119 185.721 30.5919ZM203.394 32.1937C201.136 32.1937 198.055 32.1708 194.15 32.125C193.845 32.125 193.562 32.0411 193.303 31.8733C193.059 31.6903 192.876 31.4691 192.754 31.2097C192.571 30.9352 192.479 30.6377 192.479 30.3173C192.495 29.7834 192.487 27.6325 192.456 23.8646C192.441 21.1188 192.51 18.9603 192.662 17.3891C192.678 17.1908 192.723 17.0077 192.8 16.8399C192.922 16.5348 193.112 16.2907 193.372 16.1077C193.631 15.9094 193.928 15.8026 194.264 15.7873C195.378 15.7721 196.88 15.7721 198.772 15.7873C200.663 15.7873 202.166 15.7797 203.28 15.7645C203.722 15.7645 204.096 15.917 204.401 16.2221C204.721 16.5272 204.881 16.9009 204.881 17.3433C204.881 17.7704 204.729 18.1442 204.424 18.4645C204.134 18.7696 203.768 18.9222 203.325 18.9222C202.471 18.9222 201.197 18.9222 199.504 18.9222C197.811 18.9069 196.537 18.9069 195.683 18.9222C195.637 19.8527 195.606 20.951 195.591 22.2171C196.323 22.2019 198.581 22.1943 202.364 22.1943C202.807 22.1943 203.18 22.3468 203.485 22.6519C203.806 22.957 203.966 23.3307 203.966 23.7731C203.966 24.2002 203.806 24.574 203.485 24.8943C203.18 25.1994 202.807 25.352 202.364 25.352C198.566 25.352 196.316 25.3596 195.614 25.3749C195.645 27.0834 195.652 28.2885 195.637 28.9902C198.734 29.0207 201.319 29.036 203.394 29.036C203.836 29.036 204.21 29.1885 204.515 29.4936C204.82 29.7987 204.973 30.1724 204.973 30.6148C204.973 31.0572 204.82 31.4309 204.515 31.736C204.21 32.0411 203.836 32.1937 203.394 32.1937Z" fill="#2A6025"/>
</svg>
