<svg width="58" height="58" viewBox="0 0 58 58" fill="none" xmlns="http://www.w3.org/2000/svg">
<g filter="url(#filter0_d_89_245)">
<rect x="4" width="50" height="50" rx="22.439" fill="#60EB54"/>
</g>
<path d="M25.0106 35.2685C24.9039 35.2418 24.8106 35.2018 24.7306 35.1485C24.1972 34.9618 23.7972 34.6285 23.5306 34.1485C23.3972 33.8818 22.9839 33.0952 22.2906 31.7885L20.8506 29.1085C20.5839 28.6285 20.1706 27.9485 19.6106 27.0685C19.0772 26.1885 18.5706 25.4018 18.0906 24.7085C17.7706 24.2285 17.6639 23.7085 17.7706 23.1485C17.8772 22.5885 18.1572 22.1485 18.6106 21.8285C19.0906 21.4818 19.6106 21.3618 20.1706 21.4685C20.7306 21.5752 21.1839 21.8552 21.5306 22.3085C22.6506 23.9618 23.9706 26.1752 25.4906 28.9485C25.9706 27.8552 26.5172 26.7085 27.1306 25.5085L28.7306 22.4285L30.5706 18.9885L32.2506 15.9885L34.1706 12.6285C35.1306 10.9485 35.7039 9.93518 35.8906 9.58851C36.1572 9.10851 36.5706 8.78851 37.1306 8.62852C37.6906 8.46851 38.2106 8.53518 38.6906 8.82852C39.1972 9.09518 39.5306 9.50851 39.6906 10.0685C39.8506 10.6285 39.7839 11.1618 39.4906 11.6685L37.7706 14.7485L34.1706 21.1085C33.3172 22.6018 32.7039 23.7352 32.3306 24.5085L30.7706 27.5085C30.1306 28.7618 29.5839 29.9085 29.1306 30.9485L27.7306 34.1485C27.5172 34.6818 27.1439 35.0552 26.6106 35.2685C26.0772 35.4818 25.5439 35.4818 25.0106 35.2685Z" fill="white"/>
<defs>
<filter id="filter0_d_89_245" x="0" y="0" width="58" height="58" filterUnits="userSpaceOnUse" color-interpolation-filters="sRGB">
<feFlood flood-opacity="0" result="BackgroundImageFix"/>
<feColorMatrix in="SourceAlpha" type="matrix" values="0 0 0 0 0 0 0 0 0 0 0 0 0 0 0 0 0 0 127 0" result="hardAlpha"/>
<feOffset dy="4"/>
<feGaussianBlur stdDeviation="2"/>
<feComposite in2="hardAlpha" operator="out"/>
<feColorMatrix type="matrix" values="0 0 0 0 0 0 0 0 0 0 0 0 0 0 0 0 0 0 0.25 0"/>
<feBlend mode="normal" in2="BackgroundImageFix" result="effect1_dropShadow_89_245"/>
<feBlend mode="normal" in="SourceGraphic" in2="effect1_dropShadow_89_245" result="shape"/>
</filter>
</defs>
</svg>
