<svg width="688" height="427" viewBox="0 0 688 427" fill="none" xmlns="http://www.w3.org/2000/svg">
<rect y="0.738953" width="687.976" height="426.261" rx="40.733" fill="#2A6025"/>
<path d="M187.867 308.99C187.847 309.57 187.627 310.06 187.207 310.46C186.787 310.86 186.287 311.05 185.707 311.03C185.127 311.01 184.637 310.79 184.237 310.37C183.837 309.95 183.647 309.45 183.667 308.87C183.707 307.57 183.687 303.73 183.607 297.35C182.127 299.21 180.667 301.2 179.227 303.32C178.887 303.8 178.437 304.1 177.877 304.22C177.317 304.32 176.797 304.21 176.317 303.89C176.257 303.85 176.207 303.81 176.167 303.77C175.947 303.63 175.757 303.46 175.597 303.26L170.977 297.44C170.997 297.48 170.997 299.4 170.977 303.2C170.977 306.98 170.977 308.88 170.977 308.9C170.977 309.48 170.767 309.98 170.347 310.4C169.947 310.8 169.457 311 168.877 311C168.297 311 167.797 310.8 167.377 310.4C166.977 309.98 166.777 309.48 166.777 308.9C166.777 308.06 166.777 306.65 166.777 304.67C166.797 302.69 166.807 301.16 166.807 300.08C166.807 299 166.787 297.66 166.747 296.06C166.707 294.64 166.637 293.17 166.537 291.65C166.497 291.07 166.667 290.56 167.047 290.12C167.427 289.68 167.907 289.44 168.487 289.4C168.787 289.38 169.067 289.42 169.327 289.52C169.887 289.6 170.337 289.87 170.677 290.33L177.337 298.7C179.497 295.7 181.697 293 183.937 290.6C184.357 289.88 184.977 289.53 185.797 289.55C186.377 289.57 186.867 289.79 187.267 290.21C187.667 290.63 187.857 291.13 187.837 291.71C187.777 293.61 187.777 296.52 187.837 300.44C187.897 304.34 187.907 307.19 187.867 308.99ZM197.626 311.03C196.906 311.03 196.126 310.89 195.286 310.61C194.246 310.21 193.376 309.62 192.676 308.84C191.996 308.04 191.576 307.17 191.416 306.23C191.296 305.61 191.236 305.01 191.236 304.43C191.236 303.09 191.496 301.83 192.016 300.65C192.736 298.99 193.746 297.65 195.046 296.63C196.346 295.61 197.826 295.1 199.486 295.1C200.086 295.1 200.736 295.18 201.436 295.34C201.896 295.46 202.346 295.67 202.786 295.97H202.936L203.236 295.94C203.736 295.94 204.176 296.12 204.556 296.48C204.956 296.84 205.186 297.28 205.246 297.8L205.456 299.87C205.496 300.75 205.546 302.25 205.606 304.37L205.666 305.99C205.706 306.99 205.726 307.65 205.726 307.97C205.746 308.27 205.736 308.56 205.696 308.84C205.616 309.42 205.396 309.92 205.036 310.34C204.696 310.74 204.246 310.95 203.686 310.97C203.226 310.99 202.806 310.88 202.426 310.64C202.066 310.38 201.806 309.92 201.646 309.26C201.186 309.82 200.626 310.23 199.966 310.49C199.186 310.81 198.406 310.99 197.626 311.03ZM197.656 306.8C198.256 306.8 198.876 306.61 199.516 306.23C199.676 306.13 199.856 305.98 200.056 305.78L200.506 305.36L201.016 304.64C201.136 304.5 201.276 304.4 201.436 304.34C201.436 302.66 201.386 301.24 201.286 300.08L200.986 299.87L200.566 299.54L200.296 299.36C199.976 299.28 199.726 299.24 199.546 299.24C198.826 299.24 198.126 299.52 197.446 300.08C196.786 300.64 196.256 301.42 195.856 302.42C195.536 303.2 195.376 303.9 195.376 304.52C195.376 305.06 195.496 305.51 195.736 305.87C195.996 306.23 196.356 306.49 196.816 306.65C197.116 306.75 197.396 306.8 197.656 306.8ZM214.673 311.06C214.273 311.06 213.883 310.93 213.503 310.67C213.283 310.59 213.073 310.49 212.873 310.37L212.093 309.92C211.293 309.46 210.693 309.03 210.293 308.63C209.953 308.19 209.743 307.76 209.663 307.34C209.583 306.9 209.533 306.26 209.513 305.42V304.82C209.493 304.24 209.483 302.89 209.483 300.77C209.483 299.91 209.493 299.26 209.513 298.82H208.943C208.443 298.82 208.003 298.65 207.623 298.31C207.263 297.95 207.083 297.5 207.083 296.96C207.083 296.4 207.273 295.94 207.653 295.58C208.033 295.2 208.473 295.01 208.973 295.01H209.513L209.543 293.72V292.79C209.563 292.15 209.773 291.66 210.173 291.32C210.593 290.96 211.073 290.78 211.613 290.78C212.173 290.78 212.663 290.97 213.083 291.35C213.523 291.73 213.743 292.25 213.743 292.91L213.683 294.95H214.793C215.513 294.95 216.053 295.14 216.413 295.52C216.773 295.9 216.953 296.38 216.953 296.96C216.953 297.52 216.763 298 216.383 298.4C216.003 298.78 215.443 298.97 214.703 298.97H213.593C213.593 299.79 213.583 300.4 213.563 300.8C213.543 301.22 213.533 301.82 213.533 302.6C213.533 303.88 213.573 304.99 213.653 305.93C213.733 306.01 213.783 306.05 213.803 306.05L214.103 306.26L214.343 306.38L214.613 306.53L214.853 306.65C215.213 306.81 215.523 306.99 215.783 307.19C216.403 307.61 216.713 308.17 216.713 308.87C216.713 309.43 216.513 309.94 216.113 310.4C215.713 310.84 215.233 311.06 214.673 311.06ZM224.692 311.06C224.292 311.06 223.902 310.93 223.522 310.67C223.302 310.59 223.092 310.49 222.892 310.37L222.112 309.92C221.312 309.46 220.712 309.03 220.312 308.63C219.972 308.19 219.762 307.76 219.682 307.34C219.602 306.9 219.552 306.26 219.532 305.42V304.82C219.512 304.24 219.502 302.89 219.502 300.77C219.502 299.91 219.512 299.26 219.532 298.82H218.962C218.462 298.82 218.022 298.65 217.642 298.31C217.282 297.95 217.102 297.5 217.102 296.96C217.102 296.4 217.292 295.94 217.672 295.58C218.052 295.2 218.492 295.01 218.992 295.01H219.532L219.562 293.72V292.79C219.582 292.15 219.792 291.66 220.192 291.32C220.612 290.96 221.092 290.78 221.632 290.78C222.192 290.78 222.682 290.97 223.102 291.35C223.542 291.73 223.762 292.25 223.762 292.91L223.702 294.95H224.812C225.532 294.95 226.072 295.14 226.432 295.52C226.792 295.9 226.972 296.38 226.972 296.96C226.972 297.52 226.782 298 226.402 298.4C226.022 298.78 225.462 298.97 224.722 298.97H223.612C223.612 299.79 223.602 300.4 223.582 300.8C223.562 301.22 223.552 301.82 223.552 302.6C223.552 303.88 223.592 304.99 223.672 305.93C223.752 306.01 223.802 306.05 223.822 306.05L224.122 306.26L224.362 306.38L224.632 306.53L224.872 306.65C225.232 306.81 225.542 306.99 225.802 307.19C226.422 307.61 226.732 308.17 226.732 308.87C226.732 309.43 226.532 309.94 226.132 310.4C225.732 310.84 225.252 311.06 224.692 311.06ZM231.412 311.12C230.852 311.12 230.362 310.94 229.942 310.58C229.522 310.22 229.312 309.71 229.312 309.05C229.312 307.19 229.272 304.34 229.192 300.5C229.112 296.66 229.072 293.57 229.072 291.23C229.072 290.57 229.282 290.06 229.702 289.7C230.122 289.34 230.612 289.16 231.172 289.16C231.732 289.16 232.222 289.34 232.642 289.7C233.062 290.06 233.272 290.57 233.272 291.23C233.272 293.59 233.282 295.28 233.302 296.3C233.702 296 234.122 295.74 234.562 295.52C235.202 295.2 235.932 295.04 236.752 295.04C237.912 295.04 238.962 295.34 239.902 295.94C240.862 296.54 241.512 297.33 241.852 298.31C242.092 299.03 242.232 299.96 242.272 301.1C242.292 301.44 242.302 302.07 242.302 302.99V304.16L242.122 309.17C242.102 309.77 241.902 310.23 241.522 310.55C241.142 310.87 240.692 311.03 240.172 311.03C239.612 311.03 239.132 310.85 238.732 310.49C238.332 310.13 238.142 309.63 238.162 308.99L238.342 304.1L238.372 302.48L238.342 301.25C238.302 300.55 238.252 300.12 238.192 299.96C237.992 299.36 237.472 299.06 236.632 299.06C236.012 299.06 235.412 299.19 234.832 299.45C234.212 299.75 233.732 300.09 233.392 300.47C233.472 304.33 233.512 307.19 233.512 309.05C233.512 309.71 233.302 310.22 232.882 310.58C232.462 310.94 231.972 311.12 231.412 311.12ZM252.889 311.27C251.289 311.27 249.889 310.93 248.689 310.25C247.489 309.57 246.569 308.66 245.929 307.52C245.309 306.38 244.999 305.12 244.999 303.74C244.999 302 245.319 300.5 245.959 299.24C246.599 297.96 247.519 296.95 248.719 296.21C249.919 295.47 251.279 295.1 252.799 295.1C254.359 295.1 255.689 295.42 256.789 296.06C257.909 296.7 258.749 297.57 259.309 298.67C259.869 299.75 260.149 300.96 260.149 302.3C260.149 302.98 259.929 303.51 259.489 303.89C259.049 304.27 258.459 304.49 257.719 304.55C256.219 304.69 254.889 304.76 253.729 304.76C252.629 304.76 251.449 304.73 250.189 304.67L249.139 304.64C249.259 305.62 249.639 306.39 250.279 306.95C250.939 307.49 251.929 307.74 253.249 307.7C253.849 307.68 254.329 307.61 254.689 307.49C255.049 307.35 255.369 307.15 255.649 306.89C255.809 306.73 255.979 306.56 256.159 306.38C256.339 306.2 256.539 306.06 256.759 305.96C256.979 305.86 257.249 305.81 257.569 305.81C258.089 305.81 258.519 305.99 258.859 306.35C259.219 306.69 259.399 307.09 259.399 307.55C259.399 308.19 259.079 308.8 258.439 309.38C257.799 309.96 256.969 310.42 255.949 310.76C254.949 311.1 253.929 311.27 252.889 311.27ZM249.199 301.58C250.379 301.74 251.689 301.8 253.129 301.76C254.509 301.74 255.519 301.65 256.159 301.49C256.119 300.63 255.859 299.94 255.379 299.42C254.919 298.9 254.079 298.65 252.859 298.67C251.839 298.69 251.009 298.92 250.369 299.36C249.729 299.8 249.339 300.54 249.199 301.58ZM266.845 311.09C266.265 311.09 265.775 310.89 265.375 310.49C264.975 310.09 264.625 309.38 264.325 308.36C263.445 305.48 262.515 302.12 261.535 298.28C261.395 297.72 261.395 297.21 261.535 296.75C261.675 296.27 261.925 295.9 262.285 295.64C262.665 295.36 263.095 295.22 263.575 295.22C264.615 295.22 265.265 295.81 265.525 296.99C265.905 298.75 266.405 300.79 267.025 303.11L267.235 303.89C267.515 303.09 267.865 301.83 268.285 300.11L269.065 297.26C269.245 296.66 269.515 296.21 269.875 295.91C270.255 295.61 270.675 295.46 271.135 295.46C271.595 295.46 272.005 295.6 272.365 295.88C272.725 296.14 272.985 296.56 273.145 297.14L275.035 303.56L276.295 297.26C276.575 295.9 277.275 295.22 278.395 295.22C279.115 295.22 279.635 295.5 279.955 296.06C280.275 296.62 280.345 297.3 280.165 298.1C279.125 302.72 278.165 306.47 277.285 309.35C277.105 309.91 276.815 310.34 276.415 310.64C276.015 310.92 275.575 311.06 275.095 311.06C274.615 311.06 274.185 310.92 273.805 310.64C273.445 310.34 273.185 309.95 273.025 309.47L270.895 302.99L269.215 308.84C268.775 310.34 267.985 311.09 266.845 311.09Z" fill="white"/>
<g filter="url(#filter0_d_89_242)">
<rect x="198" y="328" width="50" height="50" rx="22.439" fill="#60EB54"/>
</g>
<path d="M219.011 363.269C218.904 363.242 218.811 363.202 218.731 363.149C218.197 362.962 217.797 362.629 217.531 362.149C217.397 361.882 216.984 361.095 216.291 359.789L214.851 357.109C214.584 356.629 214.171 355.949 213.611 355.069C213.077 354.189 212.571 353.402 212.091 352.709C211.771 352.229 211.664 351.709 211.771 351.149C211.877 350.589 212.157 350.149 212.611 349.829C213.091 349.482 213.611 349.362 214.171 349.469C214.731 349.575 215.184 349.855 215.531 350.309C216.651 351.962 217.971 354.175 219.491 356.949C219.971 355.855 220.517 354.709 221.131 353.509L222.731 350.429L224.571 346.989L226.251 343.989L228.171 340.629C229.131 338.949 229.704 337.935 229.891 337.589C230.157 337.109 230.571 336.789 231.131 336.629C231.691 336.469 232.211 336.535 232.691 336.829C233.197 337.095 233.531 337.509 233.691 338.069C233.851 338.629 233.784 339.162 233.491 339.669L231.771 342.749L228.171 349.109C227.317 350.602 226.704 351.735 226.331 352.509L224.771 355.509C224.131 356.762 223.584 357.909 223.131 358.949L221.731 362.149C221.517 362.682 221.144 363.055 220.611 363.269C220.077 363.482 219.544 363.482 219.011 363.269Z" fill="white"/>
<path d="M60.6734 309.02C60.6734 308.52 60.6634 307.84 60.6434 306.98C60.6434 306.1 60.6434 305.41 60.6434 304.91V303.2L57.6434 298.22C56.1634 295.8 55.0634 293.91 54.3434 292.55C54.0634 292.05 54.0034 291.53 54.1634 290.99C54.3234 290.43 54.6534 290.01 55.1534 289.73C55.6734 289.45 56.2034 289.39 56.7434 289.55C57.3034 289.71 57.7234 290.05 58.0034 290.57C58.6634 291.75 60.1634 294.28 62.5034 298.16L64.1234 295.64L67.5434 290.48C67.8434 290 68.2734 289.69 68.8334 289.55C69.3934 289.41 69.9134 289.5 70.3934 289.82C70.8934 290.12 71.2134 290.55 71.3534 291.11C71.4934 291.67 71.4034 292.2 71.0834 292.7C70.9634 292.9 69.8034 294.66 67.6034 297.98C66.4234 299.76 65.4934 301.25 64.8134 302.45C64.8334 302.91 64.8434 303.92 64.8434 305.48C64.8434 307.04 64.8534 308.18 64.8734 308.9C64.8934 309.48 64.7034 309.98 64.3034 310.4C63.9034 310.82 63.4134 311.04 62.8334 311.06C62.2534 311.08 61.7534 310.89 61.3334 310.49C60.9134 310.09 60.6934 309.6 60.6734 309.02ZM76.3808 311.21C74.6408 310.87 73.2808 310.07 72.3008 308.81C71.3008 307.55 70.7008 306.11 70.5008 304.49C70.3208 302.99 70.4908 301.49 71.0108 299.99C71.5308 298.47 72.3708 297.22 73.5308 296.24C73.9908 295.84 74.5808 295.53 75.3008 295.31C75.3208 295.31 75.5308 295.25 75.9308 295.13C76.0908 295.09 76.2108 295.05 76.2908 295.01C76.8508 294.79 77.4108 294.81 77.9708 295.07C79.8508 295.37 81.1108 295.68 81.7508 296C82.4908 296.36 83.1208 296.86 83.6408 297.5C84.1608 298.14 84.5208 298.82 84.7208 299.54C84.9408 300.24 85.1008 300.99 85.2008 301.79C85.3008 302.57 85.2908 303.28 85.1708 303.92C85.0708 304.9 84.8508 305.85 84.5108 306.77C84.1708 307.67 83.6508 308.53 82.9508 309.35C82.2508 310.17 81.4308 310.75 80.4908 311.09C79.3508 311.49 77.9808 311.53 76.3808 311.21ZM77.1608 307.13C78.0208 307.29 78.6708 307.29 79.1108 307.13C79.4908 306.99 79.8708 306.6 80.2508 305.96C80.6508 305.3 80.9008 304.47 81.0008 303.47C81.1208 302.47 81.0608 301.65 80.8208 301.01C80.5808 300.35 80.2908 299.94 79.9508 299.78C79.6908 299.66 79.4508 299.58 79.2308 299.54C79.0108 299.48 78.6908 299.43 78.2708 299.39C77.8708 299.33 77.4708 299.25 77.0708 299.15C76.7308 299.25 76.5508 299.3 76.5308 299.3L76.2308 299.42C75.6708 299.9 75.2408 300.56 74.9408 301.4C74.6408 302.24 74.5508 303.11 74.6708 304.01C74.7708 304.87 75.0308 305.57 75.4508 306.11C75.8908 306.65 76.4608 306.99 77.1608 307.13ZM99.4302 311.3C98.2902 310.86 97.7202 310.13 97.7202 309.11C96.5802 310.71 94.9602 311.34 92.8602 311C91.9802 310.76 91.2102 310.4 90.5502 309.92C89.9102 309.44 89.4102 308.87 89.0502 308.21C88.6902 307.55 88.4202 306.9 88.2402 306.26C88.0602 305.6 87.9402 304.9 87.8802 304.16C87.8202 303.76 87.8202 303.1 87.8802 302.18C87.9402 301.26 87.9902 300.58 88.0302 300.14C88.0702 299.7 88.1402 299.1 88.2402 298.34C88.3402 297.56 88.4002 297.08 88.4202 296.9C88.5002 296.34 88.7502 295.89 89.1702 295.55C89.6102 295.21 90.1002 295.08 90.6402 295.16C91.2002 295.22 91.6502 295.47 91.9902 295.91C92.3302 296.33 92.4702 296.82 92.4102 297.38L92.2002 298.94C92.1002 299.68 92.0302 300.24 91.9902 300.62C91.9502 300.98 91.9002 301.54 91.8402 302.3C91.8002 303.04 91.8102 303.57 91.8702 303.89C91.9502 304.87 92.1402 305.62 92.4402 306.14C92.7602 306.64 93.2502 306.97 93.9102 307.13C94.3502 307.25 94.8402 307.22 95.3802 307.04C95.9202 306.84 96.4602 306.31 97.0002 305.45C97.1202 305.33 97.2402 305.23 97.3602 305.15C97.3802 302.21 97.3702 299.58 97.3302 297.26C97.3302 296.66 97.5302 296.16 97.9302 295.76C98.3302 295.34 98.8202 295.13 99.4002 295.13C100 295.11 100.5 295.3 100.9 295.7C101.32 296.1 101.54 296.6 101.56 297.2C101.6 300.16 101.6 304.17 101.56 309.23C101.56 309.79 101.35 310.28 100.93 310.7C100.51 311.1 100.01 311.3 99.4302 311.3Z" fill="white"/>
<defs>
<filter id="filter0_d_89_242" x="194" y="328" width="58" height="58" filterUnits="userSpaceOnUse" color-interpolation-filters="sRGB">
<feFlood flood-opacity="0" result="BackgroundImageFix"/>
<feColorMatrix in="SourceAlpha" type="matrix" values="0 0 0 0 0 0 0 0 0 0 0 0 0 0 0 0 0 0 127 0" result="hardAlpha"/>
<feOffset dy="4"/>
<feGaussianBlur stdDeviation="2"/>
<feComposite in2="hardAlpha" operator="out"/>
<feColorMatrix type="matrix" values="0 0 0 0 0 0 0 0 0 0 0 0 0 0 0 0 0 0 0.25 0"/>
<feBlend mode="normal" in2="BackgroundImageFix" result="effect1_dropShadow_89_242"/>
<feBlend mode="normal" in="SourceGraphic" in2="effect1_dropShadow_89_242" result="shape"/>
</filter>
</defs>
</svg>
