<svg width="186" height="60" viewBox="0 0 186 60" fill="none" xmlns="http://www.w3.org/2000/svg">
<g filter="url(#filter0_d_89_244)">
<rect x="66" width="53" height="52" rx="22.439" fill="#FF4D4D"/>
</g>
<path d="M97.929 33.21C96.529 31.51 94.929 29.79 93.129 28.05C91.309 29.85 89.799 31.56 88.599 33.18C88.199 33.7 87.669 34.01 87.009 34.11C86.369 34.21 85.779 34.06 85.239 33.66C84.719 33.26 84.409 32.74 84.309 32.1C84.209 31.44 84.359 30.84 84.759 30.3C86.019 28.6 87.629 26.76 89.589 24.78L84.699 20.64C84.179 20.22 83.879 19.68 83.799 19.02C83.739 18.36 83.919 17.78 84.339 17.28C84.759 16.76 85.299 16.47 85.959 16.41C86.619 16.33 87.199 16.5 87.699 16.92L93.069 21.45L97.689 17.01C98.149 16.53 98.709 16.29 99.369 16.29C100.029 16.29 100.599 16.52 101.079 16.98C101.559 17.44 101.799 18 101.799 18.66C101.799 19.32 101.569 19.89 101.109 20.37C100.089 21.41 98.589 22.86 96.609 24.72C98.449 26.52 100.129 28.33 101.649 30.15C102.069 30.65 102.249 31.23 102.189 31.89C102.129 32.55 101.839 33.1 101.319 33.54C100.819 33.96 100.239 34.14 99.579 34.08C98.919 34.02 98.369 33.73 97.929 33.21Z" fill="white"/>
<defs>
<filter id="filter0_d_89_244" x="62" y="0" width="61" height="60" filterUnits="userSpaceOnUse" color-interpolation-filters="sRGB">
<feFlood flood-opacity="0" result="BackgroundImageFix"/>
<feColorMatrix in="SourceAlpha" type="matrix" values="0 0 0 0 0 0 0 0 0 0 0 0 0 0 0 0 0 0 127 0" result="hardAlpha"/>
<feOffset dy="4"/>
<feGaussianBlur stdDeviation="2"/>
<feComposite in2="hardAlpha" operator="out"/>
<feColorMatrix type="matrix" values="0 0 0 0 0 0 0 0 0 0 0 0 0 0 0 0 0 0 0.25 0"/>
<feBlend mode="normal" in2="BackgroundImageFix" result="effect1_dropShadow_89_244"/>
<feBlend mode="normal" in="SourceGraphic" in2="effect1_dropShadow_89_244" result="shape"/>
</filter>
</defs>
</svg>
