<svg width="186" height="60" viewBox="0 0 186 60" fill="none" xmlns="http://www.w3.org/2000/svg">
<g filter="url(#filter0_d_89_243)">
<rect x="20" width="146" height="52" rx="22.439" fill="#6AACDA"/>
</g>
<path d="M49.5737 36.36C48.0137 36.36 46.5537 36.09 45.1937 35.55C43.8537 35.01 42.7837 34.28 41.9837 33.36C41.2037 32.5 40.5137 31.26 39.9137 29.64C39.3137 28 39.0137 26.56 39.0137 25.32C39.0137 23.42 39.5037 21.62 40.4837 19.92C41.4837 18.22 42.8137 16.85 44.4737 15.81C46.1337 14.77 47.9037 14.25 49.7837 14.25C50.9637 14.25 52.1237 14.47 53.2637 14.91C54.1437 15.27 54.8637 15.69 55.4237 16.17C56.0037 16.65 56.7337 17.43 57.6137 18.51C58.0737 19.05 58.3037 19.55 58.3037 20.01C58.3037 20.55 58.0837 21.03 57.6437 21.45C57.2237 21.85 56.7437 22.05 56.2037 22.05C55.6237 22.05 55.1337 21.81 54.7337 21.33L53.4137 19.77C53.0137 19.27 52.4837 18.9 51.8237 18.66C51.1637 18.42 50.4937 18.3 49.8137 18.3C48.6737 18.3 47.5837 18.63 46.5437 19.29C45.5237 19.93 44.6937 20.79 44.0537 21.87C43.4337 22.93 43.1237 24.06 43.1237 25.26C43.1237 26.24 43.3237 27.23 43.7237 28.23C44.1237 29.21 44.5837 30.02 45.1037 30.66C45.5037 31.14 46.1837 31.54 47.1437 31.86C48.1037 32.18 49.1137 32.34 50.1737 32.34C50.9737 32.34 51.6537 32.23 52.2137 32.01C52.7737 31.79 53.1937 31.49 53.4737 31.11C53.6737 30.83 53.8937 30.34 54.1337 29.64L54.6137 28.44C55.0137 27.64 55.6037 27.24 56.3837 27.24C56.9237 27.24 57.4037 27.44 57.8237 27.84C58.2637 28.22 58.4837 28.69 58.4837 29.25C58.4837 29.49 58.4237 29.76 58.3037 30.06L58.0337 30.81C57.8337 31.35 57.6337 31.83 57.4337 32.25C57.2537 32.65 57.0137 33.07 56.7137 33.51C55.9737 34.53 54.9637 35.26 53.6837 35.7C52.4037 36.14 51.0337 36.36 49.5737 36.36ZM66.4325 36.21C64.6925 35.87 63.3325 35.07 62.3525 33.81C61.3525 32.55 60.7525 31.11 60.5525 29.49C60.3725 27.99 60.5425 26.49 61.0625 24.99C61.5825 23.47 62.4225 22.22 63.5825 21.24C64.0425 20.84 64.6325 20.53 65.3525 20.31C65.3725 20.31 65.5825 20.25 65.9825 20.13C66.1425 20.09 66.2625 20.05 66.3425 20.01C66.9025 19.79 67.4625 19.81 68.0225 20.07C69.9025 20.37 71.1625 20.68 71.8025 21C72.5425 21.36 73.1725 21.86 73.6925 22.5C74.2125 23.14 74.5725 23.82 74.7725 24.54C74.9925 25.24 75.1525 25.99 75.2525 26.79C75.3525 27.57 75.3425 28.28 75.2225 28.92C75.1225 29.9 74.9025 30.85 74.5625 31.77C74.2225 32.67 73.7025 33.53 73.0025 34.35C72.3025 35.17 71.4825 35.75 70.5425 36.09C69.4025 36.49 68.0325 36.53 66.4325 36.21ZM67.2125 32.13C68.0725 32.29 68.7225 32.29 69.1625 32.13C69.5425 31.99 69.9225 31.6 70.3025 30.96C70.7025 30.3 70.9525 29.47 71.0525 28.47C71.1725 27.47 71.1125 26.65 70.8725 26.01C70.6325 25.35 70.3425 24.94 70.0025 24.78C69.7425 24.66 69.5025 24.58 69.2825 24.54C69.0625 24.48 68.7425 24.43 68.3225 24.39C67.9225 24.33 67.5225 24.25 67.1225 24.15C66.7825 24.25 66.6025 24.3 66.5825 24.3L66.2825 24.42C65.7225 24.9 65.2925 25.56 64.9925 26.4C64.6925 27.24 64.6025 28.11 64.7225 29.01C64.8225 29.87 65.0825 30.57 65.5025 31.11C65.9425 31.65 66.5125 31.99 67.2125 32.13ZM91.5219 34.11C91.5019 34.65 91.2919 35.11 90.8919 35.49C90.4919 35.87 90.0219 36.05 89.4819 36.03C88.9419 36.01 88.4819 35.8 88.1019 35.4C87.7219 35 87.5419 34.53 87.5619 33.99C87.5619 33.77 87.5819 33.11 87.6219 32.01C87.6819 30.91 87.7119 30.06 87.7119 29.46C87.7319 28.86 87.7119 28.17 87.6519 27.39C87.5919 26.59 87.4819 25.95 87.3219 25.47C87.2019 25.09 86.9619 24.78 86.6019 24.54C86.2419 24.28 85.7919 24.13 85.2519 24.09C84.6919 24.03 84.1719 24.1 83.6919 24.3C83.2319 24.48 82.8919 24.74 82.6719 25.08C82.5919 25.34 82.5419 25.52 82.5219 25.62C82.5219 25.7 82.5219 25.83 82.5219 26.01C82.5219 26.71 82.5319 27.97 82.5519 29.79C82.5719 31.59 82.5819 32.96 82.5819 33.9C82.5819 34.48 82.3719 34.98 81.9519 35.4C81.5519 35.8 81.0619 36 80.4819 36C79.9019 36 79.4019 35.8 78.9819 35.4C78.5819 34.98 78.3819 34.48 78.3819 33.9C78.3819 33.06 78.3619 31.34 78.3219 28.74C78.3019 26.14 78.2219 24.15 78.0819 22.77C77.9819 22.05 78.1219 21.48 78.5019 21.06C78.8819 20.62 79.3719 20.4 79.9719 20.4C81.0519 20.46 81.6819 20.98 81.8619 21.96C82.7819 20.8 84.0519 20.19 85.6719 20.13C87.0919 20.15 88.2519 20.54 89.1519 21.3C90.0519 22.04 90.7019 23.03 91.1019 24.27C91.3219 24.95 91.4719 25.81 91.5519 26.85C91.6519 27.89 91.6919 28.77 91.6719 29.49C91.6719 30.19 91.6419 31.13 91.5819 32.31C91.5419 33.49 91.5219 34.09 91.5219 34.11ZM97.9604 36C97.3804 36 96.8804 35.81 96.4604 35.43C96.0404 35.03 95.8404 34.48 95.8604 33.78C95.8804 33.34 95.8904 32.92 95.8904 32.52C95.8904 32.12 95.8904 31.73 95.8904 31.35V30.6L95.8604 27.36C95.8604 26.14 95.8504 25.23 95.8304 24.63H95.4704C94.9904 24.63 94.5504 24.44 94.1504 24.06C93.7504 23.68 93.5504 23.19 93.5504 22.59C93.5504 22.03 93.7304 21.55 94.0904 21.15C94.4504 20.75 94.8404 20.55 95.2604 20.55H95.5904V19.77C95.5904 18.53 95.8904 17.44 96.4904 16.5C97.1104 15.54 97.9404 14.81 98.9804 14.31C100.02 13.79 101.18 13.53 102.46 13.53C104.04 13.53 105.34 13.8 106.36 14.34C107.4 14.88 107.92 15.61 107.92 16.53C107.92 17.09 107.73 17.56 107.35 17.94C106.97 18.32 106.5 18.51 105.94 18.51C105.68 18.51 105.42 18.47 105.16 18.39C104.9 18.29 104.65 18.18 104.41 18.06L103.84 17.79C103.22 17.55 102.58 17.43 101.92 17.43C101.22 17.43 100.68 17.63 100.3 18.03C99.9204 18.41 99.7304 18.94 99.7304 19.62V20.43L101.05 20.46C101.71 20.48 102.22 20.69 102.58 21.09C102.94 21.49 103.12 21.97 103.12 22.53C103.12 23.11 102.92 23.61 102.52 24.03C102.14 24.43 101.61 24.63 100.93 24.63H100C100.04 26.15 100.06 27.28 100.06 28.02L100.09 31.08V31.86C100.13 32.6 100.12 33.34 100.06 34.08C100.02 34.7 99.7904 35.18 99.3704 35.52C98.9704 35.84 98.5004 36 97.9604 36ZM106.63 36C106.07 36 105.58 35.82 105.16 35.46C104.76 35.1 104.55 34.6 104.53 33.96C104.51 33.02 104.5 31.64 104.5 29.82C104.5 26.28 104.54 23.69 104.62 22.05C104.64 21.41 104.85 20.92 105.25 20.58C105.65 20.24 106.13 20.07 106.69 20.07C107.29 20.07 107.8 20.26 108.22 20.64C108.64 21.02 108.84 21.55 108.82 22.23C108.74 24.45 108.7 27.01 108.7 29.91L108.73 33.9C108.73 34.56 108.52 35.08 108.1 35.46C107.68 35.82 107.19 36 106.63 36ZM112.728 35.37C112.308 34.97 112.098 34.49 112.098 33.93C112.078 31.95 112.068 30.39 112.068 29.25C112.028 29.01 112.028 28.78 112.068 28.56C112.048 26.34 112.038 24.33 112.038 22.53C112.038 21.75 112.238 21.16 112.638 20.76C113.058 20.34 113.558 20.13 114.138 20.13C114.558 20.13 114.938 20.25 115.278 20.49C115.638 20.71 115.898 21.11 116.058 21.69C116.858 21.25 118.058 20.75 119.658 20.19C120.178 20.01 120.678 20.04 121.158 20.28C121.658 20.5 121.998 20.87 122.178 21.39C122.358 21.91 122.328 22.42 122.088 22.92C121.868 23.4 121.498 23.73 120.978 23.91C119.138 24.55 117.568 25.18 116.268 25.8C116.188 26.44 116.178 27.35 116.238 28.53C116.258 29.79 116.278 31.57 116.298 33.87C116.298 34.45 116.088 34.95 115.668 35.37C115.268 35.79 114.778 36 114.198 36C113.638 36 113.148 35.79 112.728 35.37ZM137.19 34.11C137.17 34.65 136.96 35.11 136.56 35.49C136.16 35.87 135.69 36.05 135.15 36.03C134.61 36.01 134.15 35.8 133.77 35.4C133.39 35 133.21 34.53 133.23 33.99C133.25 33.65 133.28 33.06 133.32 32.22L133.38 30.48C133.4 29.98 133.4 29.36 133.38 28.62C133.36 27.86 133.32 27.24 133.26 26.76C133.24 26.68 133.23 26.6 133.23 26.52C133.17 26.1 133.09 25.73 132.99 25.41C132.87 25.03 132.63 24.72 132.27 24.48C131.91 24.22 131.46 24.07 130.92 24.03C130.36 23.97 129.84 24.04 129.36 24.24C128.9 24.42 128.56 24.68 128.34 25.02C128.32 25.08 128.29 25.19 128.25 25.35V25.47C128.29 29.11 128.31 31.92 128.31 33.9C128.31 34.48 128.1 34.98 127.68 35.4C127.28 35.8 126.79 36 126.21 36C125.63 36 125.13 35.8 124.71 35.4C124.31 34.98 124.11 34.48 124.11 33.9C124.11 32 124.08 28.12 124.02 22.26C124.02 21.68 124.22 21.19 124.62 20.79C125.02 20.37 125.51 20.15 126.09 20.13C126.65 20.13 127.14 20.32 127.56 20.7C128.72 20.16 129.95 19.95 131.25 20.07C132.79 20.21 134.09 20.76 135.15 21.72C135.87 21.1 136.69 20.66 137.61 20.4C138.53 20.14 139.44 20.05 140.34 20.13C141.58 20.25 142.71 20.66 143.73 21.36C144.75 22.06 145.46 23.03 145.86 24.27C146.08 24.95 146.23 25.86 146.31 27C146.41 28.12 146.45 29 146.43 29.64C146.43 30.26 146.4 31.15 146.34 32.31C146.3 33.47 146.28 34.06 146.28 34.08C146.26 34.62 146.05 35.08 145.65 35.46C145.25 35.84 144.78 36.02 144.24 36C143.7 35.98 143.24 35.77 142.86 35.37C142.48 34.97 142.3 34.5 142.32 33.96C142.32 33.72 142.34 33.07 142.38 32.01C142.44 30.93 142.47 30.13 142.47 29.61C142.49 29.09 142.47 28.39 142.41 27.51C142.35 26.63 142.24 25.95 142.08 25.47C141.96 25.09 141.72 24.78 141.36 24.54C141 24.28 140.55 24.13 140.01 24.09C139.45 24.03 138.93 24.1 138.45 24.3C137.99 24.48 137.65 24.74 137.43 25.08C137.41 25.14 137.38 25.25 137.34 25.41C137.34 25.47 137.34 25.53 137.34 25.59L137.28 25.83C137.28 25.89 137.28 25.95 137.28 26.01C137.26 26.19 137.24 26.35 137.22 26.49C137.28 27.11 137.32 27.86 137.34 28.74C137.36 29.62 137.36 30.33 137.34 30.87C137.32 31.41 137.29 32.04 137.25 32.76C137.21 33.46 137.19 33.91 137.19 34.11Z" fill="white"/>
<defs>
<filter id="filter0_d_89_243" x="16" y="0" width="154" height="60" filterUnits="userSpaceOnUse" color-interpolation-filters="sRGB">
<feFlood flood-opacity="0" result="BackgroundImageFix"/>
<feColorMatrix in="SourceAlpha" type="matrix" values="0 0 0 0 0 0 0 0 0 0 0 0 0 0 0 0 0 0 127 0" result="hardAlpha"/>
<feOffset dy="4"/>
<feGaussianBlur stdDeviation="2"/>
<feComposite in2="hardAlpha" operator="out"/>
<feColorMatrix type="matrix" values="0 0 0 0 0 0 0 0 0 0 0 0 0 0 0 0 0 0 0.25 0"/>
<feBlend mode="normal" in2="BackgroundImageFix" result="effect1_dropShadow_89_243"/>
<feBlend mode="normal" in="SourceGraphic" in2="effect1_dropShadow_89_243" result="shape"/>
</filter>
</defs>
</svg>
